<svg width="540" height="86" viewBox="0 0 540 86" fill="none" xmlns="http://www.w3.org/2000/svg">
<g filter="url(#filter0_d_107_5)">
<mask id="path-1-outside-1_107_5" maskUnits="userSpaceOnUse" x="3" y="-1" width="534" height="86" fill="black">
<rect fill="white" x="3" y="-1" width="534" height="86"/>
<path d="M38.744 76.44C16.472 76.44 4.76 63.48 4.76 38.328C4.76 13.176 16.472 0.599997 38.744 0.599997C61.112 0.599997 72.824 13.176 72.824 38.328C72.824 63.48 61.112 76.44 38.744 76.44ZM40.376 68.088L65.72 37.464C68.984 33.528 68.024 29.208 63.416 27.384L27.032 12.792C19.352 9.72 13.304 14.712 16.088 23.736L29.048 65.112C30.584 70.104 36.728 72.408 40.376 68.088ZM155.128 64.344C155.128 70.392 151.864 76.44 141.88 76.44C138.04 76.44 132.952 74.616 127.672 68.184L103.96 39.48C101.848 36.792 100.888 34.776 100.888 33.432C100.984 30.936 102.904 30.264 106.456 30.744L135.64 34.488C145.912 35.832 149.272 31.224 149.272 26.232C149.272 21.528 145.624 17.88 138.616 17.88H108.568C98.6803 17.88 93.3043 23.736 93.3043 30.552C93.3043 32.376 93.7843 34.296 94.5523 36.12L104.344 59.16C108.088 67.992 106.936 76.44 95.9923 76.44C90.0403 76.44 83.4163 71.832 83.4163 58.104C83.4163 25.464 97.1443 0.599997 126.328 0.599997C150.04 0.599997 155.704 15.576 155.704 24.216C155.704 30.744 153.304 36.6 139.768 41.4L124.024 46.968C121.72 47.736 119.896 48.888 119.896 51.192C119.896 53.4 121.432 54.168 125.08 54.168L143.992 54.36C150.328 54.456 155.128 58.392 155.128 64.344ZM215.827 48.504L223.891 48.12C231.475 47.736 239.059 53.016 239.059 61.656C239.059 71.736 231.379 75 213.331 75H201.235C178.675 75 164.851 61.656 164.851 38.136C164.851 16.536 178.579 0.599997 207.763 0.599997C226.483 0.599997 239.635 10.296 239.635 24.696C239.635 30.744 237.235 38.328 224.563 40.344L214.099 41.976C212.275 42.264 211.411 43.8 211.411 45.144C211.411 46.872 212.947 48.6 215.827 48.504ZM173.299 24.408C171.955 27.768 172.147 31.896 174.835 35.64L194.323 62.136C202.195 72.792 211.795 72.504 216.307 67.128C220.147 62.52 220.339 55.896 211.987 50.904L182.899 33.624C180.019 31.896 179.059 30.072 179.827 27.576C180.403 25.752 182.611 24.6 186.163 25.272L220.819 32.184C228.883 33.816 233.587 31.32 233.587 25.464C233.587 21.624 229.843 18.072 222.835 17.976L184.819 17.688C178.867 17.688 174.931 20.28 173.299 24.408ZM282.25 31.512L262.666 52.728C260.458 55.032 258.154 59.448 261.034 63.48C263.914 67.512 269.002 68.088 277.258 63.864L304.522 49.848C310.186 46.968 311.53 41.784 307.594 35.928L295.786 18.456C291.178 11.64 293.674 0.599997 303.946 0.599997C311.242 0.599997 315.178 4.92 315.178 15.576V46.68C315.178 64.92 301.93 76.44 282.538 76.44C261.706 76.44 250.666 67.8 250.666 49.272V13.272C250.666 4.92 253.354 0.599997 260.266 0.599997C265.738 0.599997 269.002 4.056 269.002 8.664C269.002 12.216 266.89 14.712 262.666 19.608L257.098 26.04C255.178 28.248 255.85 29.88 256.906 30.936C257.674 31.704 259.402 32.376 261.418 30.744L272.554 21.72C282.058 14.04 289.93 23.16 282.25 31.512ZM327.082 56.376L332.746 15.768C334.186 5.496 338.026 0.599997 344.554 0.599997C350.026 0.599997 356.17 4.248 356.17 11.544C356.17 14.04 355.402 17.016 353.578 20.472L333.322 58.104C331.69 61.08 330.538 63.672 330.538 65.592C330.538 68.088 332.65 69.72 334.282 69.72C336.298 69.72 339.082 67.608 343.978 63.864L352.81 57.048C356.458 54.264 359.818 53.112 362.698 53.112C369.034 53.112 373.258 58.584 373.258 64.056C373.258 69.528 369.13 75 359.05 75H339.946C329.482 75 326.698 71.448 326.698 61.56C326.698 60.024 326.794 58.296 327.082 56.376ZM444.16 21.432C444.16 30.552 449.344 29.208 449.344 47.16C449.344 66.36 434.08 76.44 414.4 76.44C406.72 76.44 400.192 75.192 395.2 72.024C392.512 70.296 391.072 70.2 389.152 71.832L384.928 75.576C382.816 77.496 380.32 75.864 382.24 73.368L386.176 68.184C387.52 66.456 386.752 64.248 385.888 62.808C382.24 56.856 380.416 48.696 380.416 38.712C380.416 15.192 390.784 0.599997 410.272 0.599997C423.04 0.599997 427.648 5.496 432.064 5.496C435.808 5.496 436.864 0.599997 441.856 0.599997C446.464 0.599997 450.496 4.72799 450.496 9.432C450.496 15.384 444.16 16.344 444.16 21.432ZM404.704 11.928L389.44 55.608C388.672 57.72 389.44 59.64 391.36 59.64C392.224 59.64 393.28 58.968 394.336 57.528L419.296 24.6C421.696 21.432 422.656 18.456 422.656 15.96C422.656 10.104 417.472 6.264 412.576 6.264C409.216 6.264 406.048 7.992 404.704 11.928ZM402.688 66.168L435.52 50.52C441.568 47.64 443.968 42.936 443.968 38.52C443.968 33.24 440.416 28.536 435.52 28.536C433.024 28.536 430.24 29.784 427.36 32.76L400 61.464C398.848 62.712 398.272 63.864 398.272 64.824C398.272 66.84 400.384 67.128 402.688 66.168ZM474.843 76.44C462.267 76.44 461.979 66.84 461.979 52.92V27C461.979 5.4 466.491 0.599997 476.763 0.599997C484.347 0.599997 488.571 6.55199 494.331 15.576L517.083 51.192C519.387 54.84 520.731 56.184 522.459 56.184C524.859 56.184 526.011 55.128 526.011 53.016C526.011 51.288 525.243 49.08 523.995 45.912L515.163 23.16C512.763 17.016 512.955 13.944 512.955 11.64C512.955 6.744 515.451 0.503998 523.515 0.503998C533.019 0.503998 535.899 9.72 534.939 18.552L530.043 63C528.987 72.216 525.819 76.44 519.579 76.44C513.723 76.44 510.747 72.312 503.931 62.904L487.995 40.824C484.155 35.544 480.123 27 481.371 19.032L482.235 13.56C483.003 8.664 480.027 6.168 476.571 6.168C471.195 6.168 468.027 10.2 468.027 15.672C468.027 18.36 468.891 22.68 469.755 24.792L482.811 56.76C487.131 67.416 485.211 76.44 474.843 76.44Z"/>
</mask>
<path d="M38.744 76.44C16.472 76.44 4.76 63.48 4.76 38.328C4.76 13.176 16.472 0.599997 38.744 0.599997C61.112 0.599997 72.824 13.176 72.824 38.328C72.824 63.48 61.112 76.44 38.744 76.44ZM40.376 68.088L65.72 37.464C68.984 33.528 68.024 29.208 63.416 27.384L27.032 12.792C19.352 9.72 13.304 14.712 16.088 23.736L29.048 65.112C30.584 70.104 36.728 72.408 40.376 68.088ZM155.128 64.344C155.128 70.392 151.864 76.44 141.88 76.44C138.04 76.44 132.952 74.616 127.672 68.184L103.96 39.48C101.848 36.792 100.888 34.776 100.888 33.432C100.984 30.936 102.904 30.264 106.456 30.744L135.64 34.488C145.912 35.832 149.272 31.224 149.272 26.232C149.272 21.528 145.624 17.88 138.616 17.88H108.568C98.6803 17.88 93.3043 23.736 93.3043 30.552C93.3043 32.376 93.7843 34.296 94.5523 36.12L104.344 59.16C108.088 67.992 106.936 76.44 95.9923 76.44C90.0403 76.44 83.4163 71.832 83.4163 58.104C83.4163 25.464 97.1443 0.599997 126.328 0.599997C150.04 0.599997 155.704 15.576 155.704 24.216C155.704 30.744 153.304 36.6 139.768 41.4L124.024 46.968C121.72 47.736 119.896 48.888 119.896 51.192C119.896 53.4 121.432 54.168 125.08 54.168L143.992 54.36C150.328 54.456 155.128 58.392 155.128 64.344ZM215.827 48.504L223.891 48.12C231.475 47.736 239.059 53.016 239.059 61.656C239.059 71.736 231.379 75 213.331 75H201.235C178.675 75 164.851 61.656 164.851 38.136C164.851 16.536 178.579 0.599997 207.763 0.599997C226.483 0.599997 239.635 10.296 239.635 24.696C239.635 30.744 237.235 38.328 224.563 40.344L214.099 41.976C212.275 42.264 211.411 43.8 211.411 45.144C211.411 46.872 212.947 48.6 215.827 48.504ZM173.299 24.408C171.955 27.768 172.147 31.896 174.835 35.64L194.323 62.136C202.195 72.792 211.795 72.504 216.307 67.128C220.147 62.52 220.339 55.896 211.987 50.904L182.899 33.624C180.019 31.896 179.059 30.072 179.827 27.576C180.403 25.752 182.611 24.6 186.163 25.272L220.819 32.184C228.883 33.816 233.587 31.32 233.587 25.464C233.587 21.624 229.843 18.072 222.835 17.976L184.819 17.688C178.867 17.688 174.931 20.28 173.299 24.408ZM282.25 31.512L262.666 52.728C260.458 55.032 258.154 59.448 261.034 63.48C263.914 67.512 269.002 68.088 277.258 63.864L304.522 49.848C310.186 46.968 311.53 41.784 307.594 35.928L295.786 18.456C291.178 11.64 293.674 0.599997 303.946 0.599997C311.242 0.599997 315.178 4.92 315.178 15.576V46.68C315.178 64.92 301.93 76.44 282.538 76.44C261.706 76.44 250.666 67.8 250.666 49.272V13.272C250.666 4.92 253.354 0.599997 260.266 0.599997C265.738 0.599997 269.002 4.056 269.002 8.664C269.002 12.216 266.89 14.712 262.666 19.608L257.098 26.04C255.178 28.248 255.85 29.88 256.906 30.936C257.674 31.704 259.402 32.376 261.418 30.744L272.554 21.72C282.058 14.04 289.93 23.16 282.25 31.512ZM327.082 56.376L332.746 15.768C334.186 5.496 338.026 0.599997 344.554 0.599997C350.026 0.599997 356.17 4.248 356.17 11.544C356.17 14.04 355.402 17.016 353.578 20.472L333.322 58.104C331.69 61.08 330.538 63.672 330.538 65.592C330.538 68.088 332.65 69.72 334.282 69.72C336.298 69.72 339.082 67.608 343.978 63.864L352.81 57.048C356.458 54.264 359.818 53.112 362.698 53.112C369.034 53.112 373.258 58.584 373.258 64.056C373.258 69.528 369.13 75 359.05 75H339.946C329.482 75 326.698 71.448 326.698 61.56C326.698 60.024 326.794 58.296 327.082 56.376ZM444.16 21.432C444.16 30.552 449.344 29.208 449.344 47.16C449.344 66.36 434.08 76.44 414.4 76.44C406.72 76.44 400.192 75.192 395.2 72.024C392.512 70.296 391.072 70.2 389.152 71.832L384.928 75.576C382.816 77.496 380.32 75.864 382.24 73.368L386.176 68.184C387.52 66.456 386.752 64.248 385.888 62.808C382.24 56.856 380.416 48.696 380.416 38.712C380.416 15.192 390.784 0.599997 410.272 0.599997C423.04 0.599997 427.648 5.496 432.064 5.496C435.808 5.496 436.864 0.599997 441.856 0.599997C446.464 0.599997 450.496 4.72799 450.496 9.432C450.496 15.384 444.16 16.344 444.16 21.432ZM404.704 11.928L389.44 55.608C388.672 57.72 389.44 59.64 391.36 59.64C392.224 59.64 393.28 58.968 394.336 57.528L419.296 24.6C421.696 21.432 422.656 18.456 422.656 15.96C422.656 10.104 417.472 6.264 412.576 6.264C409.216 6.264 406.048 7.992 404.704 11.928ZM402.688 66.168L435.52 50.52C441.568 47.64 443.968 42.936 443.968 38.52C443.968 33.24 440.416 28.536 435.52 28.536C433.024 28.536 430.24 29.784 427.36 32.76L400 61.464C398.848 62.712 398.272 63.864 398.272 64.824C398.272 66.84 400.384 67.128 402.688 66.168ZM474.843 76.44C462.267 76.44 461.979 66.84 461.979 52.92V27C461.979 5.4 466.491 0.599997 476.763 0.599997C484.347 0.599997 488.571 6.55199 494.331 15.576L517.083 51.192C519.387 54.84 520.731 56.184 522.459 56.184C524.859 56.184 526.011 55.128 526.011 53.016C526.011 51.288 525.243 49.08 523.995 45.912L515.163 23.16C512.763 17.016 512.955 13.944 512.955 11.64C512.955 6.744 515.451 0.503998 523.515 0.503998C533.019 0.503998 535.899 9.72 534.939 18.552L530.043 63C528.987 72.216 525.819 76.44 519.579 76.44C513.723 76.44 510.747 72.312 503.931 62.904L487.995 40.824C484.155 35.544 480.123 27 481.371 19.032L482.235 13.56C483.003 8.664 480.027 6.168 476.571 6.168C471.195 6.168 468.027 10.2 468.027 15.672C468.027 18.36 468.891 22.68 469.755 24.792L482.811 56.76C487.131 67.416 485.211 76.44 474.843 76.44Z" fill="url(#paint0_linear_107_5)"/>
<path d="M40.376 68.088L41.1401 68.7332L41.1464 68.7256L40.376 68.088ZM65.72 37.464L64.9502 36.8257L64.9496 36.8264L65.72 37.464ZM63.416 27.384L63.0438 28.3121L63.048 28.3138L63.416 27.384ZM27.032 12.792L27.4042 11.8639L27.4034 11.8635L27.032 12.792ZM16.088 23.736L15.1324 24.0308L15.1337 24.0349L16.088 23.736ZM29.048 65.112L30.0038 64.8179L30.0023 64.8131L29.048 65.112ZM38.744 75.44C27.8037 75.44 19.6154 72.263 14.1452 66.1492C8.65742 60.0158 5.76 50.7662 5.76 38.328H3.76C3.76 51.0418 6.71858 60.8482 12.6548 67.4828C18.6086 74.137 27.4123 77.44 38.744 77.44V75.44ZM5.76 38.328C5.76 25.8896 8.65745 16.74 14.1402 10.7044C19.6071 4.68617 27.7951 1.6 38.744 1.6V-0.400003C27.4209 -0.400003 18.6169 2.80182 12.6598 9.3596C6.71855 15.9 3.76 25.6144 3.76 38.328H5.76ZM38.744 1.6C49.7421 1.6 57.954 4.68687 63.4325 10.7052C68.9266 16.7405 71.824 25.8895 71.824 38.328H73.824C73.824 25.6145 70.8655 15.8995 64.9115 9.35883C58.942 2.80112 50.1139 -0.400003 38.744 -0.400003V1.6ZM71.824 38.328C71.824 50.7662 68.9266 60.0152 63.4275 66.1484C57.9457 72.2622 49.7335 75.44 38.744 75.44V77.44C50.1225 77.44 58.9503 74.1378 64.9165 67.4836C70.8654 60.8488 73.824 51.0418 73.824 38.328H71.824ZM41.1464 68.7256L66.4904 38.1016L64.9496 36.8264L39.6056 67.4504L41.1464 68.7256ZM66.4898 38.1023C68.2622 35.965 68.9897 33.5923 68.4953 31.4109C67.998 29.217 66.3194 27.4578 63.784 26.4542L63.048 28.3138C65.1206 29.1342 66.226 30.447 66.5447 31.8531C66.8663 33.2717 66.4418 35.027 64.9502 36.8257L66.4898 38.1023ZM63.7882 26.4559L27.4042 11.8639L26.6598 13.7201L63.0438 28.3121L63.7882 26.4559ZM27.4034 11.8635C23.3216 10.2308 19.442 10.6632 16.9519 12.9986C14.4575 15.338 13.6703 19.2913 15.1324 24.0308L17.0436 23.4412C15.7217 19.1567 16.5665 16.102 18.3201 14.4574C20.078 12.8088 23.0624 12.2812 26.6606 13.7205L27.4034 11.8635ZM15.1337 24.0349L28.0937 65.4109L30.0023 64.8131L17.0423 23.4371L15.1337 24.0349ZM28.0922 65.4061C28.9566 68.2154 31.1231 70.2915 33.6307 71.0492C36.1758 71.8184 39.0449 71.2143 41.14 68.7332L39.612 67.4428C38.0591 69.2817 36.0322 69.6856 34.2093 69.1348C32.3489 68.5725 30.6754 67.0006 30.0038 64.8179L28.0922 65.4061ZM127.672 68.184L128.445 67.5495L128.443 67.5471L127.672 68.184ZM103.96 39.48L103.174 40.0978L103.181 40.1074L103.189 40.1169L103.96 39.48ZM100.888 33.432L99.889 33.3936L99.8883 33.4128V33.432H100.888ZM106.456 30.744L106.322 31.735L106.329 31.7359L106.456 30.744ZM135.64 34.488L135.77 33.4964L135.768 33.4961L135.64 34.488ZM94.5523 36.12L93.6306 36.5081L93.6319 36.5111L94.5523 36.12ZM104.344 59.16L105.265 58.7697L105.265 58.7689L104.344 59.16ZM139.768 41.4L140.102 42.3428L140.102 42.3425L139.768 41.4ZM124.024 46.968L124.34 47.9167L124.349 47.9138L124.358 47.9108L124.024 46.968ZM125.08 54.168L125.09 53.168H125.08V54.168ZM143.992 54.36L144.007 53.3601L144.002 53.3601L143.992 54.36ZM154.128 64.344C154.128 67.2018 153.357 69.9562 151.509 71.9869C149.678 73.9986 146.663 75.44 141.88 75.44V77.44C147.081 77.44 150.691 75.8574 152.988 73.3331C155.268 70.8278 156.128 67.5342 156.128 64.344H154.128ZM141.88 75.44C138.396 75.44 133.574 73.7972 128.445 67.5495L126.899 68.8185C132.331 75.4348 137.685 77.44 141.88 77.44V75.44ZM128.443 67.5471L104.731 38.8431L103.189 40.1169L126.901 68.8209L128.443 67.5471ZM104.747 38.8622C103.717 37.5515 102.991 36.4335 102.527 35.5048C102.056 34.5633 101.888 33.8843 101.888 33.432H99.8883C99.8883 34.3237 100.201 35.3247 100.738 36.3992C101.281 37.4865 102.092 38.7205 103.174 40.0978L104.747 38.8622ZM101.888 33.4704C101.907 32.9702 102.014 32.6385 102.152 32.4138C102.284 32.1982 102.48 32.0217 102.786 31.8844C103.453 31.5849 104.583 31.4999 106.322 31.735L106.59 29.753C104.778 29.5081 103.172 29.5191 101.967 30.0596C101.337 30.3423 100.812 30.7718 100.447 31.3692C100.086 31.9575 99.9178 32.6458 99.889 33.3936L101.888 33.4704ZM106.329 31.7359L135.513 35.4799L135.768 33.4961L106.583 29.7521L106.329 31.7359ZM135.511 35.4795C140.784 36.1696 144.497 35.3615 146.912 33.5333C149.35 31.6875 150.272 28.9504 150.272 26.232H148.272C148.272 28.5056 147.515 30.5685 145.705 31.9387C143.872 33.3265 140.768 34.1504 135.77 33.4964L135.511 35.4795ZM150.272 26.232C150.272 23.6047 149.245 21.2286 147.215 19.5259C145.2 17.8358 142.286 16.88 138.616 16.88V18.88C141.954 18.88 144.368 19.7482 145.93 21.0581C147.476 22.3554 148.272 24.1553 148.272 26.232H150.272ZM138.616 16.88H108.568V18.88H138.616V16.88ZM108.568 16.88C103.426 16.88 99.357 18.4053 96.5602 20.9158C93.7606 23.4291 92.3043 26.8715 92.3043 30.552H94.3043C94.3043 27.4164 95.5359 24.5229 97.8963 22.4042C100.26 20.2827 103.822 18.88 108.568 18.88V16.88ZM92.3043 30.552C92.3043 32.5442 92.8264 34.5981 93.6306 36.5081L95.4739 35.7319C94.7421 33.9939 94.3043 32.2078 94.3043 30.552H92.3043ZM93.6319 36.5111L103.424 59.5511L105.265 58.7689L95.4726 35.7289L93.6319 36.5111ZM103.424 59.5503C105.257 63.8763 105.796 67.9032 104.738 70.7655C104.22 72.1673 103.315 73.3116 101.936 74.119C100.542 74.9351 98.6055 75.44 95.9922 75.44V77.44C98.851 77.44 101.163 76.8889 102.946 75.845C104.744 74.7924 105.944 73.2727 106.614 71.4585C107.933 67.8888 107.175 63.2757 105.265 58.7697L103.424 59.5503ZM95.9922 75.44C93.2828 75.44 90.431 74.3975 88.2392 71.7782C86.0359 69.1454 84.4163 64.8171 84.4163 58.104H82.4163C82.4163 65.1189 84.1086 69.9586 86.7053 73.0618C89.3135 76.1785 92.7497 77.44 95.9922 77.44V75.44ZM84.4163 58.104C84.4163 41.9036 87.8262 27.7507 94.7522 17.6786C101.646 7.65292 112.067 1.6 126.328 1.6V-0.400003C111.406 -0.400003 100.37 5.97907 93.1043 16.5454C85.8703 27.0653 82.4163 41.6644 82.4163 58.104H84.4163ZM126.328 1.6C137.96 1.6 145.013 5.26412 149.168 9.84021C153.347 14.4428 154.704 20.089 154.704 24.216H156.704C156.704 19.703 155.23 13.5412 150.649 8.49578C146.044 3.42388 138.409 -0.400003 126.328 -0.400003V1.6ZM154.704 24.216C154.704 27.3462 154.133 30.1911 152.03 32.8333C149.902 35.5064 146.116 38.0879 139.434 40.4575L140.102 42.3425C146.956 39.9121 151.138 37.1656 153.595 34.0787C156.076 30.9609 156.704 27.6138 156.704 24.216H154.704ZM139.435 40.4572L123.691 46.0252L124.358 47.9108L140.102 42.3428L139.435 40.4572ZM123.708 46.0193C122.509 46.419 121.322 46.9522 120.426 47.7619C119.492 48.6054 118.896 49.7312 118.896 51.192H120.896C120.896 50.3488 121.212 49.7466 121.767 49.2461C122.358 48.7118 123.235 48.285 124.34 47.9167L123.708 46.0193ZM118.896 51.192C118.896 51.8569 119.012 52.4897 119.308 53.0537C119.61 53.6279 120.064 54.0645 120.634 54.3816C121.714 54.9838 123.238 55.168 125.08 55.168V53.168C123.275 53.168 122.206 52.9682 121.607 52.6344C121.336 52.4835 121.179 52.3141 121.078 52.1233C120.973 51.9223 120.896 51.6311 120.896 51.192H118.896ZM125.07 55.1679L143.982 55.3599L144.002 53.3601L125.09 53.1681L125.07 55.1679ZM143.977 55.3599C149.912 55.4498 154.128 59.0733 154.128 64.344H156.128C156.128 57.7107 150.744 53.4622 144.007 53.3601L143.977 55.3599ZM215.827 48.504L215.861 49.5034L215.868 49.5032L215.875 49.5029L215.827 48.504ZM223.891 48.12L223.939 49.1189L223.942 49.1187L223.891 48.12ZM224.563 40.344L224.717 41.3321L224.72 41.3316L224.563 40.344ZM214.099 41.976L213.945 40.9879L213.943 40.9882L214.099 41.976ZM173.299 24.408L174.228 24.7794L174.229 24.7757L173.299 24.408ZM174.835 35.64L174.023 36.2232L174.03 36.2325L174.835 35.64ZM194.323 62.136L193.518 62.7285L193.519 62.7302L194.323 62.136ZM216.307 67.128L217.073 67.7709L217.075 67.7682L216.307 67.128ZM211.987 50.904L212.5 50.0456L212.498 50.0443L211.987 50.904ZM182.899 33.624L182.385 34.4815L182.389 34.4837L182.899 33.624ZM179.827 27.576L178.874 27.2749L178.871 27.2819L179.827 27.576ZM186.163 25.272L186.359 24.2913L186.349 24.2894L186.163 25.272ZM220.819 32.184L221.018 31.2039L221.015 31.2033L220.819 32.184ZM222.835 17.976L222.849 16.9761L222.843 16.976L222.835 17.976ZM184.819 17.688L184.827 16.688H184.819V17.688ZM215.875 49.5029L223.939 49.1189L223.844 47.1211L215.78 47.5051L215.875 49.5029ZM223.942 49.1187C231.092 48.7567 238.059 53.7174 238.059 61.656H240.059C240.059 52.3146 231.858 46.7153 223.841 47.1213L223.942 49.1187ZM238.059 61.656C238.059 64.0504 237.603 65.9588 236.713 67.4909C235.826 69.0163 234.463 70.2455 232.518 71.2125C228.569 73.1757 222.346 74 213.331 74V76C222.364 76 229.005 75.1923 233.408 73.0035C235.639 71.8945 237.325 70.4177 238.442 68.4961C239.555 66.5812 240.059 64.3016 240.059 61.656H238.059ZM213.331 74H201.235V76H213.331V74ZM201.235 74C190.152 74 181.335 70.7258 175.29 64.6809C169.246 58.6365 165.851 49.7003 165.851 38.136H163.851C163.851 50.0917 167.369 59.5875 173.876 66.0951C180.383 72.6022 189.759 76 201.235 76V74ZM165.851 38.136C165.851 27.5506 169.21 18.4523 176.05 11.9951C182.895 5.53321 193.349 1.6 207.763 1.6V-0.400003C192.994 -0.400003 181.992 3.63478 174.677 10.5408C167.357 17.4517 163.851 27.1214 163.851 38.136H165.851ZM207.763 1.6C216.961 1.6 224.703 3.98289 230.119 8.04779C235.515 12.0975 238.635 17.8341 238.635 24.696H240.635C240.635 17.1579 237.18 10.8465 231.32 6.4482C225.48 2.0651 217.286 -0.400003 207.763 -0.400003V1.6ZM238.635 24.696C238.635 27.5998 238.058 30.7642 236.052 33.4309C234.06 36.0792 230.553 38.3785 224.406 39.3564L224.72 41.3316C231.245 40.2935 235.274 37.7928 237.65 34.6331C240.013 31.4918 240.635 27.8402 240.635 24.696H238.635ZM224.409 39.3559L213.945 40.9879L214.253 42.9641L224.717 41.3321L224.409 39.3559ZM213.943 40.9882C211.532 41.3689 210.411 43.4174 210.411 45.144H212.411C212.411 44.1826 213.018 43.1591 214.255 42.9638L213.943 40.9882ZM210.411 45.144C210.411 47.5516 212.537 49.6142 215.861 49.5034L215.794 47.5046C213.358 47.5858 212.411 46.1924 212.411 45.144H210.411ZM172.371 24.0366C170.905 27.7009 171.128 32.1906 174.023 36.2232L175.648 35.0568C173.167 31.6014 173.005 27.8351 174.228 24.7794L172.371 24.0366ZM174.03 36.2325L193.518 62.7285L195.129 61.5435L175.641 35.0475L174.03 36.2325ZM193.519 62.7302C197.57 68.2134 202.153 70.9964 206.428 71.6331C210.71 72.2709 214.588 70.7325 217.073 67.7709L215.541 66.4851C213.515 68.8995 210.336 70.1931 206.723 69.6549C203.101 69.1156 198.949 66.7146 195.128 61.5418L193.519 62.7302ZM217.075 67.7682C219.136 65.2956 220.284 62.197 219.703 58.9822C219.121 55.7603 216.843 52.6412 212.5 50.0456L211.474 51.7624C215.484 54.1588 217.285 56.8477 217.735 59.3378C218.186 61.835 217.319 64.3524 215.539 66.4878L217.075 67.7682ZM212.498 50.0443L183.41 32.7643L182.389 34.4837L211.477 51.7637L212.498 50.0443ZM183.414 32.7665C182.047 31.9465 181.267 31.1782 180.885 30.4321C180.524 29.7267 180.459 28.9242 180.783 27.8701L178.871 27.2819C178.428 28.7238 178.459 30.0813 179.105 31.3439C179.731 32.5658 180.871 33.5735 182.385 34.4815L183.414 32.7665ZM180.781 27.8771C181.129 26.775 182.63 25.6212 185.977 26.2546L186.349 24.2894C182.593 23.5788 179.678 24.729 178.874 27.2749L180.781 27.8771ZM185.968 26.2527L220.624 33.1647L221.015 31.2033L186.359 24.2913L185.968 26.2527ZM220.621 33.1641C224.752 34.0002 228.215 33.8239 230.694 32.5165C233.26 31.1631 234.587 28.6981 234.587 25.464H232.587C232.587 28.0859 231.563 29.7969 229.761 30.7475C227.871 31.7441 224.95 31.9998 221.018 31.2039L220.621 33.1641ZM234.587 25.464C234.587 20.8321 230.121 17.0757 222.849 16.9761L222.822 18.9759C229.565 19.0683 232.587 22.4159 232.587 25.464H234.587ZM222.843 16.976L184.827 16.688L184.812 18.688L222.828 18.976L222.843 16.976ZM184.819 16.688C178.549 16.688 174.183 19.4517 172.369 24.0403L174.229 24.7757C175.679 21.1082 179.186 18.688 184.819 18.688V16.688ZM282.25 31.512L282.985 32.1903L282.986 32.1889L282.25 31.512ZM262.666 52.728L263.388 53.4199L263.395 53.4132L263.401 53.4063L262.666 52.728ZM261.034 63.48L261.848 62.8988L261.034 63.48ZM277.258 63.864L277.714 64.7542L277.715 64.7534L277.258 63.864ZM304.522 49.848L304.069 48.9566L304.065 48.9586L304.522 49.848ZM307.594 35.928L308.424 35.3702L308.423 35.3681L307.594 35.928ZM295.786 18.456L296.615 17.8961L296.615 17.8959L295.786 18.456ZM262.666 19.608L263.422 20.2625L263.423 20.2612L262.666 19.608ZM257.098 26.04L257.853 26.6962L257.854 26.6945L257.098 26.04ZM256.906 30.936L256.199 31.6431L256.906 30.936ZM261.418 30.744L262.047 31.5212L262.048 31.5209L261.418 30.744ZM272.554 21.72L271.926 20.9422L271.925 20.9431L272.554 21.72ZM281.515 30.8337L261.931 52.0497L263.401 53.4063L282.985 32.1903L281.515 30.8337ZM261.944 52.0361C260.755 53.2775 259.52 55.103 258.974 57.2048C258.42 59.3397 258.582 61.7668 260.221 64.0612L261.848 62.8988C260.607 61.1612 260.48 59.3643 260.91 57.7072C261.349 56.017 262.37 54.4825 263.388 53.4199L261.944 52.0361ZM260.221 64.0612C261.835 66.322 264.108 67.6329 267.085 67.767C269.998 67.8982 273.517 66.9017 277.714 64.7542L276.803 62.9738C272.744 65.0503 269.59 65.8778 267.175 65.769C264.824 65.6631 263.113 64.67 261.848 62.8988L260.221 64.0612ZM277.715 64.7534L304.979 50.7374L304.065 48.9586L276.801 62.9746L277.715 64.7534ZM304.975 50.7394C307.994 49.2047 309.997 46.9806 310.633 44.2292C311.266 41.4889 310.492 38.4466 308.424 35.3702L306.764 36.4858C308.633 39.2654 309.154 41.7431 308.684 43.7788C308.216 45.8034 306.715 47.6113 304.069 48.9566L304.975 50.7394ZM308.423 35.3681L296.615 17.8961L294.958 19.0159L306.766 36.4879L308.423 35.3681ZM296.615 17.8959C294.486 14.7473 294.007 10.6197 295.224 7.31799C296.417 4.08512 299.244 1.6 303.946 1.6V-0.400003C298.377 -0.400003 294.82 2.63487 293.348 6.626C291.902 10.5483 292.478 15.3487 294.958 19.0161L296.615 17.8959ZM303.946 1.6C307.388 1.6 309.86 2.60828 311.512 4.70999C313.205 6.86352 314.178 10.3383 314.178 15.576H316.178C316.178 10.1577 315.184 6.14448 313.084 3.474C310.945 0.751711 307.801 -0.400003 303.946 -0.400003V1.6ZM314.178 15.576V46.68H316.178V15.576H314.178ZM314.178 46.68C314.178 55.5435 310.967 62.7036 305.461 67.6565C299.945 72.6194 292.04 75.44 282.538 75.44V77.44C292.429 77.44 300.844 74.5005 306.799 69.1434C312.765 63.7764 316.178 56.0565 316.178 46.68H314.178ZM282.538 75.44C272.235 75.44 264.54 73.2996 259.431 69.0362C254.357 64.802 251.666 58.3311 251.666 49.272H249.666C249.666 58.7409 252.496 65.854 258.15 70.5718C263.768 75.2604 272.009 77.44 282.538 77.44V75.44ZM251.666 49.272V13.272H249.666V49.272H251.666ZM251.666 13.272C251.666 9.16479 252.335 6.25646 253.685 4.38999C254.983 2.59442 257.036 1.6 260.266 1.6V-0.400003C256.584 -0.400003 253.837 0.765575 252.064 3.21801C250.342 5.59953 249.666 9.0272 249.666 13.272H251.666ZM260.266 1.6C262.788 1.6 264.71 2.39263 265.994 3.62538C267.277 4.85721 268.002 6.60262 268.002 8.664H270.002C270.002 6.11737 269.096 3.83079 267.379 2.18261C265.663 0.535366 263.216 -0.400003 260.266 -0.400003V1.6ZM268.002 8.664C268.002 10.2067 267.554 11.5363 266.572 13.0998C265.565 14.7019 264.038 16.487 261.909 18.9548L263.423 20.2612C265.518 17.833 267.16 15.9221 268.265 14.1642C269.394 12.3677 270.002 10.6733 270.002 8.664H268.002ZM261.91 18.9535L256.342 25.3855L257.854 26.6945L263.422 20.2625L261.91 18.9535ZM256.344 25.3838C255.266 26.623 254.804 27.8355 254.889 28.9933C254.973 30.1337 255.574 31.0176 256.199 31.6431L257.613 30.2289C257.183 29.7984 256.92 29.3383 256.884 28.8467C256.849 28.3725 257.01 27.665 257.853 26.6962L256.344 25.3838ZM256.199 31.6431C256.733 32.1768 257.574 32.6568 258.618 32.7371C259.685 32.8192 260.868 32.4759 262.047 31.5212L260.789 29.9668C259.952 30.6441 259.263 30.7808 258.771 30.7429C258.255 30.7032 257.848 30.4632 257.613 30.2289L256.199 31.6431ZM262.048 31.5209L273.184 22.4969L271.925 20.9431L260.789 29.9671L262.048 31.5209ZM273.183 22.4978C277.706 18.8426 281.414 19.4549 283.114 21.2846C284.834 23.1365 285.135 26.8974 281.514 30.8351L282.986 32.1889C287.045 27.7746 287.251 22.7995 284.579 19.9234C281.887 17.0251 276.906 16.9174 271.926 20.9422L273.183 22.4978ZM327.082 56.376L328.07 56.5243L328.072 56.5141L327.082 56.376ZM332.746 15.768L331.755 15.6292L331.755 15.6299L332.746 15.768ZM353.578 20.472L354.458 20.946L354.462 20.9388L353.578 20.472ZM333.322 58.104L334.198 58.5848L334.202 58.578L333.322 58.104ZM343.978 63.864L344.585 64.6584L344.588 64.6557L343.978 63.864ZM352.81 57.048L352.203 56.253L352.199 56.2563L352.81 57.048ZM328.072 56.5141L333.736 15.9061L331.755 15.6299L326.091 56.2379L328.072 56.5141ZM333.736 15.9068C334.445 10.845 335.73 7.25463 337.53 4.94698C339.288 2.69314 341.583 1.6 344.553 1.6V-0.400003C340.996 -0.400003 338.107 0.954851 335.953 3.71701C333.841 6.42537 332.486 10.419 331.755 15.6292L333.736 15.9068ZM344.553 1.6C349.666 1.6 355.169 4.97507 355.169 11.544H357.169C357.169 3.52092 350.385 -0.400003 344.553 -0.400003V1.6ZM355.169 11.544C355.169 13.8359 354.463 16.6513 352.693 20.0052L354.462 20.9388C356.34 17.3807 357.169 14.2441 357.169 11.544H355.169ZM352.697 19.998L332.441 57.63L334.202 58.578L354.458 20.946L352.697 19.998ZM332.445 57.6232C331.62 59.1263 330.901 60.5616 330.386 61.8803C329.875 63.1877 329.538 64.4507 329.538 65.592H331.538C331.538 64.8133 331.776 63.8203 332.249 62.6077C332.718 61.4064 333.391 60.0577 334.198 58.5848L332.445 57.6232ZM329.538 65.592C329.538 67.1371 330.195 68.4183 331.096 69.3049C331.979 70.1736 333.157 70.72 334.281 70.72V68.72C333.774 68.72 333.08 68.4504 332.499 67.8791C331.936 67.3257 331.538 66.5429 331.538 65.592H329.538ZM334.281 70.72C335.602 70.72 337.016 70.0424 338.588 69.0389C340.191 68.0149 342.15 66.5205 344.585 64.6584L343.37 63.0696C340.909 64.9515 339.027 66.3851 337.511 67.3531C335.963 68.3416 334.977 68.72 334.281 68.72V70.72ZM344.588 64.6557L353.42 57.8397L352.199 56.2563L343.367 63.0723L344.588 64.6557ZM353.416 57.8429C356.938 55.1551 360.091 54.112 362.698 54.112V52.112C359.544 52.112 355.977 53.3729 352.203 56.2531L353.416 57.8429ZM362.698 54.112C368.385 54.112 372.258 59.0352 372.258 64.056H374.258C374.258 58.1328 369.682 52.112 362.698 52.112V54.112ZM372.258 64.056C372.258 66.5356 371.327 68.9906 369.266 70.835C367.203 72.6826 363.911 74 359.049 74V76C364.268 76 368.08 74.5814 370.601 72.325C373.124 70.0654 374.258 67.0484 374.258 64.056H372.258ZM359.049 74H339.945V76H359.049V74ZM339.945 74C334.767 74 331.828 73.1071 330.125 71.3017C328.407 69.481 327.698 66.478 327.698 61.56H325.698C325.698 66.53 326.38 70.247 328.67 72.6743C330.975 75.1169 334.66 76 339.945 76V74ZM327.698 61.56C327.698 60.0666 327.791 58.3887 328.07 56.5243L326.093 56.2277C325.796 58.2033 325.698 59.9814 325.698 61.56H327.698ZM395.2 72.024L394.659 72.8652L394.664 72.8683L395.2 72.024ZM389.152 71.832L388.505 71.0701L388.497 71.0768L388.489 71.0837L389.152 71.832ZM384.928 75.576L384.265 74.8276L384.256 74.8361L384.928 75.576ZM382.24 73.368L383.033 73.9777L383.037 73.9727L382.24 73.368ZM386.176 68.184L385.387 67.57L385.38 67.5793L386.176 68.184ZM385.888 62.808L386.746 62.2935L386.741 62.2854L385.888 62.808ZM404.704 11.928L405.648 12.2579L405.651 12.2511L404.704 11.928ZM389.44 55.608L390.38 55.9498L390.384 55.9379L389.44 55.608ZM394.336 57.528L393.539 56.9239L393.535 56.9302L393.53 56.9366L394.336 57.528ZM419.296 24.6L420.093 25.2041L420.093 25.2039L419.296 24.6ZM402.688 66.168L403.073 67.0911L403.096 67.0815L403.118 67.0707L402.688 66.168ZM435.52 50.52L435.09 49.6171L435.09 49.6173L435.52 50.52ZM427.36 32.76L426.642 32.0646L426.636 32.07L427.36 32.76ZM400 61.464L399.276 60.774L399.271 60.7798L399.265 60.7857L400 61.464ZM443.16 21.432C443.16 26.2441 444.57 28.4078 445.832 31.3753C447.069 34.2849 448.344 38.3016 448.344 47.16H450.344C450.344 38.0664 449.027 33.7791 447.673 30.5927C446.342 27.4642 445.16 25.7399 445.16 21.432H443.16ZM448.344 47.16C448.344 56.4646 444.66 63.4897 438.635 68.213C432.581 72.959 424.083 75.44 414.4 75.44V77.44C424.398 77.44 433.371 74.881 439.869 69.787C446.396 64.6702 450.344 57.0554 450.344 47.16H448.344ZM414.4 75.44C406.808 75.44 400.499 74.2025 395.736 71.1797L394.664 72.8683C399.885 76.1815 406.633 77.44 414.4 77.44V75.44ZM395.741 71.1828C394.369 70.3007 393.145 69.7156 391.927 69.6687C390.643 69.6194 389.565 70.1685 388.505 71.0701L389.8 72.5939C390.659 71.8635 391.262 71.6446 391.85 71.6673C392.503 71.6924 393.344 72.0193 394.659 72.8652L395.741 71.1828ZM388.489 71.0837L384.265 74.8277L385.592 76.3243L389.816 72.5803L388.489 71.0837ZM384.256 74.8361C383.411 75.6035 382.797 75.4201 382.667 75.3244C382.611 75.2829 382.552 75.2118 382.553 75.0423C382.554 74.8492 382.642 74.4858 383.033 73.9777L381.448 72.7583C380.878 73.4982 380.558 74.2748 380.553 75.0297C380.548 75.8082 380.885 76.4931 381.477 76.9316C382.644 77.7959 384.333 77.4685 385.601 76.3159L384.256 74.8361ZM383.037 73.9727L386.973 68.7887L385.38 67.5793L381.444 72.7633L383.037 73.9727ZM386.966 68.7979C387.842 67.6714 388.01 66.3965 387.851 65.2501C387.694 64.1236 387.219 63.0818 386.746 62.2935L385.031 63.3225C385.422 63.9742 385.763 64.7564 385.87 65.5259C385.974 66.2755 385.855 66.9686 385.387 67.5701L386.966 68.7979ZM386.741 62.2854C383.224 56.5469 381.416 48.591 381.416 38.712H379.416C379.416 48.801 381.257 57.1651 385.036 63.3306L386.741 62.2854ZM381.416 38.712C381.416 27.0803 383.982 17.7958 388.831 11.4427C393.65 5.12817 400.806 1.6 410.272 1.6V-0.400003C400.25 -0.400003 392.478 3.36782 387.241 10.2293C382.034 17.0522 379.416 26.8237 379.416 38.712H381.416ZM410.272 1.6C416.512 1.6 420.737 2.79308 423.952 3.98558C424.762 4.286 425.51 4.58706 426.22 4.87406C426.926 5.15902 427.603 5.43362 428.248 5.66993C429.532 6.14055 430.781 6.496 432.064 6.496V4.496C431.139 4.496 430.157 4.23944 428.936 3.79206C428.328 3.56937 427.684 3.30847 426.97 3.01968C426.26 2.73294 425.488 2.42199 424.648 2.11041C421.263 0.85491 416.8 -0.400003 410.272 -0.400003V1.6ZM432.064 6.496C434.401 6.496 435.906 4.92457 437.162 3.79031C438.486 2.59548 439.755 1.6 441.856 1.6V-0.400003C438.965 -0.400003 437.211 1.05251 435.822 2.30568C434.367 3.61942 433.472 4.496 432.064 4.496V6.496ZM441.856 1.6C445.891 1.6 449.496 5.25898 449.496 9.432H451.496C451.496 4.19701 447.038 -0.400003 441.856 -0.400003V1.6ZM449.496 9.432C449.496 11.9747 448.187 13.447 446.613 15.0569C445.091 16.6133 443.16 18.4131 443.16 21.432H445.16C445.16 19.3629 446.397 18.1387 448.043 16.4551C449.637 14.825 451.496 12.8413 451.496 9.432H449.496ZM403.76 11.5981L388.496 55.2781L390.384 55.9379L405.648 12.2579L403.76 11.5981ZM388.5 55.2663C388.054 56.4952 388.01 57.7839 388.481 58.8276C388.979 59.93 390.007 60.64 391.36 60.64V58.64C390.793 58.64 390.478 58.39 390.304 58.0044C390.103 57.5601 390.059 56.8327 390.38 55.9497L388.5 55.2663ZM391.36 60.64C392.717 60.64 394.033 59.6319 395.143 58.1194L393.53 56.9366C392.527 58.3041 391.731 58.64 391.36 58.64V60.64ZM395.133 58.1321L420.093 25.2041L418.499 23.9959L393.539 56.9239L395.133 58.1321ZM420.093 25.2039C422.597 21.8995 423.656 18.7167 423.656 15.96H421.656C421.656 18.1953 420.796 20.9645 418.499 23.9961L420.093 25.2039ZM423.656 15.96C423.656 9.44216 417.908 5.264 412.576 5.264V7.264C417.036 7.264 421.656 10.7658 421.656 15.96H423.656ZM412.576 5.264C408.84 5.264 405.256 7.21721 403.758 11.6049L405.651 12.2511C406.84 8.76678 409.592 7.264 412.576 7.264V5.264ZM403.118 67.0707L435.951 51.4227L435.09 49.6173L402.258 65.2653L403.118 67.0707ZM435.95 51.4229C442.328 48.3858 444.968 43.3417 444.968 38.52H442.968C442.968 42.5303 440.808 46.8942 435.09 49.6171L435.95 51.4229ZM444.968 38.52C444.968 32.8862 441.148 27.536 435.52 27.536V29.536C439.685 29.536 442.968 33.5938 442.968 38.52H444.968ZM435.52 27.536C432.669 27.536 429.642 28.964 426.642 32.0646L428.079 33.4554C430.838 30.604 433.379 29.536 435.52 29.536V27.536ZM426.636 32.07L399.276 60.774L400.724 62.154L428.084 33.45L426.636 32.07ZM399.265 60.7857C398.052 62.1008 397.272 63.4886 397.272 64.824H399.272C399.272 64.2394 399.645 63.3232 400.735 62.1423L399.265 60.7857ZM397.272 64.824C397.272 65.5067 397.454 66.1347 397.854 66.6403C398.253 67.1435 398.799 67.4385 399.374 67.5821C400.484 67.8598 401.824 67.6116 403.073 67.0911L402.304 65.2449C401.249 65.6844 400.38 65.7722 399.859 65.6419C399.617 65.5815 399.492 65.4865 399.422 65.3987C399.355 65.3133 399.272 65.1493 399.272 64.824H397.272ZM494.331 15.576L493.488 16.114L493.488 16.1143L494.331 15.576ZM517.083 51.192L517.928 50.658L517.925 50.6537L517.083 51.192ZM523.995 45.912L523.062 46.2739L523.064 46.2785L523.995 45.912ZM515.163 23.16L516.095 22.7981L516.094 22.7961L515.163 23.16ZM534.939 18.552L535.933 18.6615L535.933 18.6601L534.939 18.552ZM530.043 63L531.036 63.1138L531.037 63.1095L530.043 63ZM503.931 62.904L503.12 63.4892L503.121 63.4907L503.931 62.904ZM487.995 40.824L488.806 40.2388L488.803 40.2358L487.995 40.824ZM481.371 19.032L480.383 18.876L480.383 18.8773L481.371 19.032ZM482.235 13.56L483.223 13.716L483.223 13.715L482.235 13.56ZM469.755 24.792L470.681 24.4139L470.68 24.4134L469.755 24.792ZM482.811 56.76L483.737 56.3843L483.737 56.3819L482.811 56.76ZM474.843 75.44C471.82 75.44 469.645 74.8628 468.056 73.8735C466.479 72.892 465.385 71.4468 464.624 69.5309C463.856 67.5964 463.438 65.206 463.217 62.3895C462.997 59.5769 462.979 56.4049 462.979 52.92H460.979C460.979 56.3951 460.996 59.6431 461.223 62.5455C461.45 65.444 461.89 68.0636 462.765 70.2691C463.649 72.4932 464.985 74.318 466.999 75.5715C469 76.8172 471.577 77.44 474.843 77.44V75.44ZM462.979 52.92V27H460.979V52.92H462.979ZM462.979 27C462.979 16.2019 464.12 9.86277 466.369 6.22599C467.469 4.44782 468.837 3.31362 470.508 2.60892C472.203 1.89402 474.262 1.6 476.763 1.6V-0.400003C474.128 -0.400003 471.77 -0.0940247 469.731 0.766071C467.667 1.63637 465.981 3.05218 464.668 5.174C462.093 9.33722 460.979 16.1981 460.979 27H462.979ZM476.763 1.6C480.241 1.6 482.956 2.94581 485.538 5.42526C488.162 7.9448 490.597 11.5846 493.488 16.114L495.174 15.038C492.305 10.5434 489.748 6.69519 486.923 3.98273C484.057 1.23018 480.868 -0.400003 476.763 -0.400003V1.6ZM493.488 16.1143L516.24 51.7303L517.925 50.6537L495.173 15.0377L493.488 16.1143ZM516.237 51.726C517.393 53.5564 518.362 54.8983 519.301 55.7836C520.275 56.7022 521.277 57.184 522.459 57.184V55.184C521.912 55.184 521.378 54.9938 520.673 54.3284C519.932 53.6297 519.076 52.4756 517.928 50.658L516.237 51.726ZM522.459 57.184C523.783 57.184 524.957 56.8954 525.803 56.136C526.67 55.3576 527.011 54.25 527.011 53.016H525.011C525.011 53.8939 524.776 54.3704 524.467 54.6479C524.136 54.9446 523.534 55.184 522.459 55.184V57.184ZM527.011 53.016C527.011 51.061 526.154 48.6654 524.925 45.5455L523.064 46.2785C524.331 49.4946 525.011 51.515 525.011 53.016H527.011ZM524.927 45.5501L516.095 22.7981L514.231 23.5219L523.062 46.2739L524.927 45.5501ZM516.094 22.7961C514.919 19.787 514.389 17.5593 514.149 15.8231C513.909 14.0826 513.955 12.8176 513.955 11.64H511.955C511.955 12.7664 511.905 14.1894 512.168 16.0969C512.432 18.0087 513.007 20.3889 514.231 23.5238L516.094 22.7961ZM513.955 11.64C513.955 9.33847 514.545 6.78669 516.01 4.8367C517.442 2.93115 519.778 1.504 523.515 1.504V-0.496002C519.188 -0.496002 516.243 1.19684 514.411 3.63529C512.612 6.0293 511.955 9.04553 511.955 11.64H513.955ZM523.515 1.504C527.867 1.504 530.637 3.57646 532.265 6.68059C533.929 9.85238 534.412 14.1445 533.945 18.4439L535.933 18.6601C536.426 14.1275 535.948 9.39562 534.036 5.75141C532.089 2.03954 528.666 -0.496002 523.515 -0.496002V1.504ZM533.945 18.4425L529.049 62.8905L531.037 63.1095L535.933 18.6615L533.945 18.4425ZM529.049 62.8862C528.529 67.4303 527.501 70.5724 525.963 72.565C524.476 74.4923 522.436 75.44 519.579 75.44V77.44C522.961 77.44 525.626 76.2757 527.546 73.787C529.417 71.3636 530.501 67.7857 531.036 63.1138L529.049 62.8862ZM519.579 75.44C516.957 75.44 514.985 74.5439 512.803 72.4744C510.559 70.3458 508.173 67.0552 504.741 62.3173L503.121 63.4907C506.504 68.1608 509.015 71.6382 511.427 73.9256C513.901 76.2721 516.345 77.44 519.579 77.44V75.44ZM504.742 62.3188L488.806 40.2388L487.184 41.4092L503.12 63.4892L504.742 62.3188ZM488.803 40.2358C485.023 35.0378 481.171 26.7669 482.359 19.1867L480.383 18.8773C479.074 27.2331 483.286 36.0502 487.186 41.4122L488.803 40.2358ZM482.359 19.188L483.223 13.716L481.247 13.404L480.383 18.876L482.359 19.188ZM483.223 13.715C483.643 11.0384 483.053 8.87336 481.74 7.37001C480.437 5.87936 478.534 5.168 476.571 5.168V7.168C478.064 7.168 479.376 7.70464 480.234 8.68599C481.08 9.65463 481.595 11.1856 481.247 13.405L483.223 13.715ZM476.571 5.168C473.613 5.168 471.194 6.28675 469.527 8.21368C467.873 10.1243 467.027 12.7495 467.027 15.672H469.027C469.027 13.1225 469.764 10.9957 471.039 9.52232C472.3 8.06525 474.152 7.168 476.571 7.168V5.168ZM467.027 15.672C467.027 18.4849 467.914 22.9339 468.829 25.1706L470.68 24.4134C469.867 22.4261 469.027 18.2351 469.027 15.672H467.027ZM468.829 25.1701L481.885 57.1381L483.737 56.3819L470.681 24.4139L468.829 25.1701ZM481.884 57.1357C484.005 62.3663 484.511 67.0131 483.389 70.2703C482.837 71.8746 481.891 73.1442 480.527 74.023C479.155 74.9075 477.292 75.44 474.843 75.44V77.44C477.578 77.44 479.842 76.8445 481.611 75.704C483.389 74.5578 484.597 72.9054 485.28 70.9217C486.63 67.0029 485.937 61.8097 483.737 56.3843L481.884 57.1357Z" fill="#FFF0CC" mask="url(#path-1-outside-1_107_5)"/>
</g>
<defs>
<filter id="filter0_d_107_5" x="0.76001" y="0.503906" width="539.139" height="84.9922" filterUnits="userSpaceOnUse" color-interpolation-filters="sRGB">
<feFlood flood-opacity="0" result="BackgroundImageFix"/>
<feColorMatrix in="SourceAlpha" type="matrix" values="0 0 0 0 0 0 0 0 0 0 0 0 0 0 0 0 0 0 127 0" result="hardAlpha"/>
<feOffset dy="4"/>
<feGaussianBlur stdDeviation="2"/>
<feComposite in2="hardAlpha" operator="out"/>
<feColorMatrix type="matrix" values="0 0 0 0 0 0 0 0 0 0 0 0 0 0 0 0 0 0 0.25 0"/>
<feBlend mode="normal" in2="BackgroundImageFix" result="effect1_dropShadow_107_5"/>
<feBlend mode="normal" in="SourceGraphic" in2="effect1_dropShadow_107_5" result="shape"/>
</filter>
<linearGradient id="paint0_linear_107_5" x1="8.41822" y1="-246.634" x2="554.267" y2="-223.849" gradientUnits="userSpaceOnUse">
<stop offset="0.0878369" stop-color="#FFD366"/>
<stop offset="0.776816" stop-color="#CD9128"/>
</linearGradient>
</defs>
</svg>
