<?xml version="1.0" encoding="UTF-8"?>
<svg id="Layer_1" data-name="Layer 1" xmlns="http://www.w3.org/2000/svg" viewBox="0 0 1281 166.66">
  <defs>
    <style>
      .cls-1 {
        fill: #9e6f1b;
        stroke-width: 0px;
      }
    </style>
  </defs>
  <path class="cls-1" d="M133.22,164.4L198.47,2.26h44.21l65.13,162.14h-34.49l-14.13-36.63h-77.34l-13.91,36.63h-34.71ZM192.7,99.61h55.74l-27.93-72.48-27.81,72.48Z"/>
  <path class="cls-1" d="M811.22,164.4L876.47,2.26h44.21l65.13,162.14h-34.49l-14.13-36.63h-77.34l-13.91,36.63h-34.71ZM870.7,99.61h55.74l-27.93-72.48-27.81,72.48Z"/>
  <path class="cls-1" d="M0,164.4V2.26h79.94c15.3,0,27.81,3.94,37.54,11.82,9.72,7.88,14.59,18,14.59,30.36,0,8.29-2.24,15.58-6.73,21.88-4.49,6.29-10.91,11.21-19.28,14.76,9.87,2.71,17.64,7.42,23.29,14.13,5.65,6.71,8.48,14.89,8.48,24.54,0,13.49-5.07,24.31-15.21,32.45-10.14,8.14-23.39,12.21-39.74,12.21H0ZM31.32,67.16h47.49c7.31,0,12.91-1.6,16.79-4.81,3.88-3.2,5.82-7.78,5.82-13.74,0-5.35-2.05-9.59-6.16-12.72-4.11-3.13-9.59-4.69-16.45-4.69H31.32v35.96ZM31.32,135.46h52.12c6.93,0,12.51-1.81,16.73-5.43,4.22-3.62,6.33-8.37,6.33-14.25s-2.11-10.84-6.33-14.64c-4.22-3.81-9.8-5.71-16.73-5.71H31.32v40.03Z"/>
  <path class="cls-1" d="M396.48,27.81c-8.14,0-14.96,1.73-20.47,5.2-5.5,3.47-8.25,8.07-8.25,13.79s2.53,10.08,7.58,13.51c5.05,3.43,13.49,6.54,25.33,9.33,13.49,3.24,23.5,8.33,30.02,15.26,6.52,6.93,9.78,16.21,9.78,27.81,0,16.36-6.44,29.44-19.33,39.23-12.89,9.8-29.78,14.7-50.65,14.7s-36.35-5.07-48.68-15.21c-12.32-10.14-18.71-23.8-19.17-40.99l30.64-7.24c2.04,23.37,15.22,35.05,39.57,35.05,10.25,0,18.49-1.98,24.71-5.94s9.33-9.33,9.33-16.11-2.2-11.29-6.61-14.42-13.02-6.43-25.84-9.89c-12.89-3.32-22.75-8.56-29.57-15.72-6.82-7.16-10.23-16.28-10.23-27.36,0-9.8,2.79-18.43,8.37-25.89,5.58-7.46,13.19-13.15,22.84-17.07,9.65-3.92,20.54-5.88,32.68-5.88,17.11,0,30.6,3.83,40.48,11.48,9.87,7.65,15.45,18.64,16.73,32.96l-29.85,7.01c-1.58-15.75-11.38-23.63-29.4-23.63Z"/>
  <path class="cls-1" d="M466.16,2.26h121.89v28.95h-90.57v35.28h83.56v28.95h-83.56v40.03h92.83v28.95h-124.15V2.26Z"/>
  <path class="cls-1" d="M700,164.8L747.14,2.26h57.21v162.14h-31.32V19l-42.17,145.41"/>
  <path class="cls-1" d="M602,164.8L649.14,2.26h57.21v162.14h-31.32V19l-42.17,145.41"/>
  <path class="cls-1" d="M1075.17,27.81c-8.14,0-14.96,1.73-20.47,5.2-5.5,3.47-8.25,8.07-8.25,13.79s2.53,10.08,7.58,13.51c5.05,3.43,13.49,6.54,25.33,9.33,13.49,3.24,23.5,8.33,30.02,15.26s9.78,16.21,9.78,27.81c0,16.36-6.44,29.44-19.33,39.23-12.89,9.8-29.77,14.7-50.65,14.7s-36.35-5.07-48.68-15.21c-12.32-10.14-18.71-23.8-19.17-40.99l30.64-7.24c2.04,23.37,15.23,35.05,39.57,35.05,10.25,0,18.49-1.98,24.71-5.94,6.22-3.96,9.33-9.33,9.33-16.11s-2.2-11.29-6.61-14.42-13.02-6.43-25.84-9.89c-12.89-3.32-22.75-8.56-29.57-15.72-6.82-7.16-10.23-16.28-10.23-27.36,0-9.8,2.79-18.43,8.37-25.89,5.58-7.46,13.19-13.15,22.84-17.07,9.65-3.92,20.54-5.88,32.68-5.88,17.11,0,30.6,3.83,40.48,11.48,9.87,7.65,15.45,18.64,16.73,32.96l-29.85,7.01c-1.58-15.75-11.38-23.63-29.4-23.63Z"/>
  <path class="cls-1" d="M1221.75,27.81c-8.14,0-14.96,1.73-20.47,5.2-5.5,3.47-8.25,8.07-8.25,13.79s2.53,10.08,7.58,13.51c5.05,3.43,13.49,6.54,25.33,9.33,13.49,3.24,23.5,8.33,30.02,15.26,6.52,6.93,9.78,16.21,9.78,27.81,0,16.36-6.44,29.44-19.33,39.23-12.89,9.8-29.77,14.7-50.65,14.7s-36.35-5.07-48.68-15.21c-12.32-10.14-18.71-23.8-19.17-40.99l30.64-7.24c2.04,23.37,15.23,35.05,39.57,35.05,10.25,0,18.49-1.98,24.71-5.94s9.33-9.33,9.33-16.11-2.2-11.29-6.61-14.42-13.02-6.43-25.84-9.89c-12.89-3.32-22.75-8.56-29.57-15.72-6.82-7.16-10.23-16.28-10.23-27.36,0-9.8,2.79-18.43,8.37-25.89,5.58-7.46,13.19-13.15,22.84-17.07s20.54-5.88,32.68-5.88c17.11,0,30.6,3.83,40.48,11.48,9.87,7.65,15.45,18.64,16.73,32.96l-29.85,7.01c-1.58-15.75-11.38-23.63-29.4-23.63Z"/>
</svg>
